<svg width="914" height="250" viewBox="0 0 914 250" fill="none" xmlns="http://www.w3.org/2000/svg">
<path d="M21.9979 211.327L253.969 228.302L207.811 174.21L34.1898 132.403L21.9979 211.327Z" fill="white" stroke="black" stroke-width="13"/>
<path d="M852.469 181.29L900.969 92.0272L848.027 120.99L833.969 104.847L799.969 137.134L780.969 102.948L746.469 5.13794L6.46875 33.6262L50.4688 196.009L817.469 233.044L810.578 193.343L833.969 157.122L852.469 181.29Z" fill="white" stroke="black" stroke-width="10"/>
<path d="M848.356 160.722C855.678 148.831 870.651 124.464 871.969 122.118L842.864 138.733L835.176 122.118L831.881 125.539L798.425 149.933L779.914 127.248L733.387 18.9072L369.172 31.4231L23.9688 49.8059L60.8843 184.666L798.425 223.073V182.396L811.433 165.578L831.881 138.733L848.356 160.722Z" fill="black" stroke="black"/>
</svg>
