<svg width="891" height="197" viewBox="0 0 891 197" fill="none" xmlns="http://www.w3.org/2000/svg">
<path d="M840.841 127.299L876.841 79.9596L834.841 93.1868L818.341 63.5996L780.841 107.11L751.841 31.5759L634.841 5.01978L9.34082 27.0508L93.3408 147.836H708.841L764.841 184.385L729.341 70.9094L780.841 143.311L811.841 98.408L840.841 127.299Z" fill="white" stroke="black" stroke-width="10"/>
<path d="M839.841 114.42L859.341 91.4463L835.341 107.11L816.341 76.8268L779.341 119.293L741.841 40.9741L634.841 18.5198L27.3408 33.6644L104.841 140.874L707.341 136.349L741.841 157.234L720.841 67.7766H735.841L780.841 127.647L813.341 86.9212L839.841 114.42Z" fill="black"/>
</svg>
