<svg width="922" height="341" viewBox="0 0 922 341" fill="none" xmlns="http://www.w3.org/2000/svg">
<path d="M859.455 332.141L911.755 120.995L848.541 155.585L779.093 309.359L859.455 332.141Z" fill="white" stroke="black" stroke-width="13"/>
<path d="M218.182 22.237L891.116 5.15015L844.116 311.572L94.5332 255.69L114.116 163.484L95.6162 106.204L71.1162 163.484L15.6162 91.7679L63.1162 111.792L94.5332 56.8414L137.616 91.7679L218.182 22.237Z" fill="white" stroke="black" stroke-width="10"/>
<path d="M104.027 247.162L837.77 295.273L874.616 15.8606L220.48 37.1403L144.967 112.545L93.5643 73.6859L69.455 122.259L42.6162 112.545L69.455 145.852L93.5643 82.938L134.505 145.852L104.027 247.162Z" fill="black" stroke="black"/>
</svg>
