<svg width="914" height="250" viewBox="0 0 914 250" fill="none" xmlns="http://www.w3.org/2000/svg">
<path d="M891.475 211.327L659.504 228.302L705.662 174.21L879.283 132.403L891.475 211.327Z" fill="white" stroke="black" stroke-width="13"/>
<path d="M61.0039 181.29L12.5039 92.0272L65.4458 120.99L79.5039 104.847L113.504 137.134L132.504 102.948L167.004 5.13794L907.004 33.6262L863.004 196.009L96.0039 233.044L102.895 193.343L79.5039 157.122L61.0039 181.29Z" fill="white" stroke="black" stroke-width="10"/>
<path d="M65.1171 160.722C57.7952 148.831 42.8218 124.464 41.5039 122.118L70.6085 138.733L78.2965 122.118L81.5914 125.539L115.047 149.933L133.558 127.248L180.086 18.9072L544.3 31.4231L889.504 49.8059L852.588 184.666L115.047 223.073V182.396L102.04 165.578L81.5914 138.733L65.1171 160.722Z" fill="black" stroke="black"/>
</svg>
