<svg width="922" height="341" viewBox="0 0 922 341" fill="none" xmlns="http://www.w3.org/2000/svg">
<path d="M62.1519 332.141L9.85156 120.995L73.0655 155.585L142.513 309.359L62.1519 332.141Z" fill="white" stroke="black" stroke-width="13"/>
<path d="M703.424 22.237L30.4902 5.15015L77.4902 311.572L827.073 255.69L807.49 163.484L825.99 106.204L850.49 163.484L905.99 91.7679L858.49 111.792L827.073 56.8414L783.99 91.7679L703.424 22.237Z" fill="white" stroke="black" stroke-width="10"/>
<path d="M817.58 247.162L83.8366 295.273L46.9902 15.8606L701.127 37.1403L776.639 112.545L828.042 73.6859L852.151 122.259L878.99 112.545L852.151 145.852L828.042 82.938L787.102 145.852L817.58 247.162Z" fill="black" stroke="black"/>
</svg>
