<svg width="887" height="218" viewBox="0 0 887 218" fill="none" xmlns="http://www.w3.org/2000/svg">
<path d="M33.7188 3.89478L2.71875 212.895L2.34863 215.39L4.86328 215.181L725.222 155.234L749.668 169.903L750.86 170.618L751.946 169.749L803.182 128.761L821.429 143.734L822.858 144.907L824.14 143.573L885.14 80.0735L883.02 76.8059L835.071 94.0667L827.13 64.1741L826.372 61.3206L824.003 63.0833L783.405 93.2961L770.637 42.6985L770.275 41.2688L768.804 41.1907L35.8037 2.19067L33.9863 2.09399L33.7188 3.89478Z" fill="white" stroke="black" stroke-width="4"/>
<path d="M830.697 108.688L853.697 96.6877L822.697 127.188L802.197 110.688L751.697 154.188L729.697 141.188L13.1973 205.688L46.1973 14.1877L760.697 52.1877L776.697 104.688L819.197 81.6877L830.697 108.688Z" fill="black" stroke="black"/>
</svg>
