<svg width="917" height="303" viewBox="0 0 917 303" fill="none" xmlns="http://www.w3.org/2000/svg">
<path d="M104.127 6.13159L807.627 49.6316L813.02 49.9646L812.782 55.3621L811.269 89.7888L828.156 78.0984L832.226 75.282L835.455 79.032L848.59 94.2859L881.635 83.8748L899.84 78.1394L887.478 92.6833L844.978 142.683L841.957 146.237L837.957 143.837L828.354 138.074L808.369 184.559L813.772 258.721L813.984 261.629L811.697 263.436L780.697 287.936L776.939 290.906L773.481 287.592L751.18 266.219L71.0283 296.116L64.5654 296.399L65.3252 289.974L98.3252 10.9744L98.9355 5.8103L104.127 6.13159Z" fill="white" stroke="black" stroke-width="11"/>
<path d="M831.787 91.6208L797.287 114.121C798.787 96.6208 801.487 61.7208 800.287 62.1208C799.087 62.5209 340.12 33.2875 110.787 18.6208L75.7871 283.621L754.787 255.621L774.287 266.621L793.787 255.621L795.287 186.121L823.787 124.121L840.787 134.121L874.287 97.1208L842.287 107.621L831.787 91.6208Z" fill="black"/>
<path d="M63.999 122.519L139.999 200.019L151.154 211.395L135.368 213.548L124.368 215.048L122.175 215.346L120.141 214.476L23.1406 172.976L13.1436 168.699L20.2012 160.427L52.2012 122.927L57.877 116.277L63.999 122.519Z" fill="white" stroke="black" stroke-width="16"/>
</svg>
