<svg width="891" height="197" viewBox="0 0 891 197" fill="none" xmlns="http://www.w3.org/2000/svg">
<path d="M49.502 127.299L13.502 79.9596L55.502 93.1868L72.002 63.5996L109.502 107.11L138.502 31.5759L255.502 5.01978L881.002 27.0508L797.002 147.836H181.502L125.502 184.385L161.002 70.9094L109.502 143.311L78.502 98.408L49.502 127.299Z" fill="white" stroke="black" stroke-width="10"/>
<path d="M50.502 114.42L31.002 91.4463L55.002 107.11L74.002 76.8268L111.002 119.293L148.502 40.9741L255.502 18.5198L863.002 33.6644L785.502 140.874L183.002 136.349L148.502 157.234L169.502 67.7766H154.502L109.502 127.647L77.002 86.9212L50.502 114.42Z" fill="black"/>
</svg>
