<svg width="917" height="303" viewBox="0 0 917 303" fill="none" xmlns="http://www.w3.org/2000/svg">
<path d="M812.267 6.13159L108.767 49.6316L103.374 49.9646L103.611 55.3621L105.125 89.7888L88.2373 78.0984L84.168 75.282L80.9385 79.032L67.8037 94.2859L34.7588 83.8748L16.5537 78.1394L28.916 92.6833L71.416 142.683L74.4365 146.237L78.4365 143.837L88.04 138.074L108.024 184.559L102.621 258.721L102.409 261.629L104.696 263.436L135.696 287.936L139.454 290.906L142.912 287.592L165.214 266.219L845.365 296.116L851.828 296.399L851.068 289.974L818.068 10.9744L817.458 5.8103L812.267 6.13159Z" fill="white" stroke="black" stroke-width="11"/>
<path d="M84.6064 91.6208L119.106 114.121C117.606 96.6208 114.906 61.7208 116.106 62.1208C117.306 62.5209 576.273 33.2875 805.606 18.6208L840.606 283.621L161.606 255.621L142.106 266.621L122.606 255.621L121.106 186.121L92.6064 124.121L75.6064 134.121L42.1064 97.1208L74.1064 107.621L84.6064 91.6208Z" fill="black"/>
<path d="M852.395 122.519L776.395 200.019L765.239 211.395L781.025 213.548L792.025 215.048L794.219 215.346L796.253 214.476L893.253 172.976L903.25 168.699L896.192 160.427L864.192 122.927L858.517 116.277L852.395 122.519Z" fill="white" stroke="black" stroke-width="16"/>
</svg>
