<svg width="887" height="218" viewBox="0 0 887 218" fill="none" xmlns="http://www.w3.org/2000/svg">
<path d="M852.863 3.89478L883.863 212.895L884.233 215.39L881.719 215.181L161.36 155.234L136.914 169.903L135.722 170.618L134.636 169.749L83.4004 128.761L65.1533 143.734L63.7236 144.907L62.4424 143.573L1.44238 80.0735L3.5625 76.8059L51.5107 94.0667L59.4521 64.1741L60.21 61.3206L62.5791 63.0833L103.177 93.2961L115.945 42.6985L116.307 41.2688L117.778 41.1907L850.778 2.19067L852.596 2.09399L852.863 3.89478Z" fill="white" stroke="black" stroke-width="4"/>
<path d="M55.8848 108.688L32.8848 96.6877L63.8848 127.188L84.3848 110.688L134.885 154.188L156.885 141.188L873.385 205.688L840.385 14.1877L125.885 52.1877L109.885 104.688L67.3848 81.6877L55.8848 108.688Z" fill="black" stroke="black"/>
</svg>
