<svg width="70" height="42" viewBox="0 0 70 42" fill="none" xmlns="http://www.w3.org/2000/svg">
<g filter="url(#filter0_d_14_98)">
<mask id="path-1-outside-1_14_98" maskUnits="userSpaceOnUse" x="4" y="0" width="62" height="34" fill="black">
<rect fill="white" x="4" width="62" height="34"/>
<path d="M16.6333 30V7.13333H8V4H29V7.13333H20.3667V30H16.6333ZM33.0078 30V4H39.8078L46.7078 27H47.5078L54.5411 4H61.3411V30H57.6078V7.2H56.8078L50.0078 30H44.0078L37.2078 7.2H36.4078V30H33.0078Z"/>
</mask>
<path d="M16.6333 30V7.13333H8V4H29V7.13333H20.3667V30H16.6333ZM33.0078 30V4H39.8078L46.7078 27H47.5078L54.5411 4H61.3411V30H57.6078V7.2H56.8078L50.0078 30H44.0078L37.2078 7.2H36.4078V30H33.0078Z" fill="black"/>
<path d="M16.6333 30H12.6333V34H16.6333V30ZM16.6333 7.13333H20.6333V3.13333H16.6333V7.13333ZM8 7.13333H4V11.1333H8V7.13333ZM8 4V-1.90735e-06H4V4H8ZM29 4H33V-1.90735e-06H29V4ZM29 7.13333V11.1333H33V7.13333H29ZM20.3667 7.13333V3.13333H16.3667V7.13333H20.3667ZM20.3667 30V34H24.3667V30H20.3667ZM16.6333 30H20.6333V7.13333H16.6333H12.6333V30H16.6333ZM16.6333 7.13333V3.13333H8V7.13333V11.1333H16.6333V7.13333ZM8 7.13333H12V4H8H4V7.13333H8ZM8 4V8H29V4V-1.90735e-06H8V4ZM29 4H25V7.13333H29H33V4H29ZM29 7.13333V3.13333H20.3667V7.13333V11.1333H29V7.13333ZM20.3667 7.13333H16.3667V30H20.3667H24.3667V7.13333H20.3667ZM20.3667 30V26H16.6333V30V34H20.3667V30ZM33.0078 30H29.0078V34H33.0078V30ZM33.0078 4V-1.90735e-06H29.0078V4H33.0078ZM39.8078 4L43.6391 2.85061L42.7839 -1.90735e-06H39.8078V4ZM46.7078 27L42.8765 28.1494L43.7317 31H46.7078V27ZM47.5078 27V31H50.4675L51.333 28.1697L47.5078 27ZM54.5411 4V-1.90735e-06H51.5815L50.716 2.83028L54.5411 4ZM61.3411 4H65.3411V-1.90735e-06H61.3411V4ZM61.3411 30V34H65.3411V30H61.3411ZM57.6078 30H53.6078V34H57.6078V30ZM57.6078 7.2H61.6078V3.2H57.6078V7.2ZM56.8078 7.2V3.2H53.8267L52.9747 6.05678L56.8078 7.2ZM50.0078 30V34H52.9889L53.841 31.1432L50.0078 30ZM44.0078 30L40.1747 31.1432L41.0267 34H44.0078V30ZM37.2078 7.2L41.041 6.05678L40.1889 3.2H37.2078V7.2ZM36.4078 7.2V3.2H32.4078V7.2H36.4078ZM36.4078 30V34H40.4078V30H36.4078ZM33.0078 30H37.0078V4H33.0078H29.0078V30H33.0078ZM33.0078 4V8H39.8078V4V-1.90735e-06H33.0078V4ZM39.8078 4L35.9765 5.14939L42.8765 28.1494L46.7078 27L50.5391 25.8506L43.6391 2.85061L39.8078 4ZM46.7078 27V31H47.5078V27V23H46.7078V27ZM47.5078 27L51.333 28.1697L58.3663 5.16972L54.5411 4L50.716 2.83028L43.6827 25.8303L47.5078 27ZM54.5411 4V8H61.3411V4V-1.90735e-06H54.5411V4ZM61.3411 4H57.3411V30H61.3411H65.3411V4H61.3411ZM61.3411 30V26H57.6078V30V34H61.3411V30ZM57.6078 30H61.6078V7.2H57.6078H53.6078V30H57.6078ZM57.6078 7.2V3.2H56.8078V7.2V11.2H57.6078V7.2ZM56.8078 7.2L52.9747 6.05678L46.1747 28.8568L50.0078 30L53.841 31.1432L60.641 8.34322L56.8078 7.2ZM50.0078 30V26H44.0078V30V34H50.0078V30ZM44.0078 30L47.841 28.8568L41.041 6.05678L37.2078 7.2L33.3747 8.34322L40.1747 31.1432L44.0078 30ZM37.2078 7.2V3.2H36.4078V7.2V11.2H37.2078V7.2ZM36.4078 7.2H32.4078V30H36.4078H40.4078V7.2H36.4078ZM36.4078 30V26H33.0078V30V34H36.4078V30Z" fill="white" mask="url(#path-1-outside-1_14_98)"/>
</g>
<defs>
<filter id="filter0_d_14_98" x="0" y="0" width="69.3408" height="42" filterUnits="userSpaceOnUse" color-interpolation-filters="sRGB">
<feFlood flood-opacity="0" result="BackgroundImageFix"/>
<feColorMatrix in="SourceAlpha" type="matrix" values="0 0 0 0 0 0 0 0 0 0 0 0 0 0 0 0 0 0 127 0" result="hardAlpha"/>
<feOffset dy="4"/>
<feGaussianBlur stdDeviation="2"/>
<feComposite in2="hardAlpha" operator="out"/>
<feColorMatrix type="matrix" values="0 0 0 0 0 0 0 0 0 0 0 0 0 0 0 0 0 0 0.25 0"/>
<feBlend mode="normal" in2="BackgroundImageFix" result="effect1_dropShadow_14_98"/>
<feBlend mode="normal" in="SourceGraphic" in2="effect1_dropShadow_14_98" result="shape"/>
</filter>
</defs>
</svg>
