<svg width="249" height="111" viewBox="0 0 249 111" fill="none" xmlns="http://www.w3.org/2000/svg">
<rect width="249" height="111" fill="url(#paint0_linear_38_388)"/>
<path d="M77.9648 85H69.957V35.9766H54.4297V85H47.0078V29.043H101.012V85H93.1992V35.9766H77.9648V85ZM137.887 40.957V85H106.93V40.957H114.352V77.9688H130.074V40.957H137.887ZM143.902 18.9844H151.324V85H143.902V18.9844ZM180.387 59.0234V47.9883H157.242V40.957H188.199V85H157.438V59.0234H180.387ZM180.387 66.1523H164.664V77.7734H180.387V66.1523ZM194.215 41.0547L201.637 40.957V85H194.215V41.0547ZM194.215 18.9844H201.637V31.9727H194.215V18.9844Z" fill="white"/>
<defs>
<linearGradient id="paint0_linear_38_388" x1="124.5" y1="111" x2="124.5" y2="0" gradientUnits="userSpaceOnUse">
<stop stop-color="#490300"/>
<stop offset="1" stop-color="#AD0700"/>
</linearGradient>
</defs>
</svg>
