<svg width="77" height="20" viewBox="0 0 77 20" fill="none" xmlns="http://www.w3.org/2000/svg">
<path d="M5.27363 6.96094H9.35176V15.8438H1.92207V2.41406H9.35176V4.17188H3.79707V14.1562H7.57051V8.625H5.27363V6.96094ZM10.7955 15.8438V5.27344H18.2252V15.8438H10.7955ZM16.4674 7.00781L12.6705 7.03125V14.1562H16.4674V7.00781ZM28.5189 15.8438H24.2064V6.96094H22.0502V5.27344H24.2064V2.15625H25.9877V5.27344H28.5189V6.96094H25.9877V14.1562H28.5189V15.8438ZM29.9627 15.8438V5.27344H37.3924V15.8438H29.9627ZM35.6346 7.00781L31.8377 7.03125V14.1562H35.6346V7.00781ZM46.8893 4.14844H43.0924V14.1562H48.4596V15.8438H41.2174V2.41406H48.6471V6.23438H46.8893V4.14844ZM57.5205 15.8438H55.6455V6.96094H51.8721V15.8438H50.0908V0H51.8721V5.27344H57.5205V15.8438ZM64.5189 9.60938V6.96094H58.9643V5.27344H66.3939V15.8438H59.0111V9.60938H64.5189ZM64.5189 11.3203H60.7455V14.1094H64.5189V11.3203ZM74.3064 15.8438H69.9939V6.96094H67.8377V5.27344H69.9939V2.15625H71.7752V5.27344H74.3064V6.96094H71.7752V14.1562H74.3064V15.8438Z" fill="white"/>
<path d="M0.00019455 19.5H76.2283V19.9688H0.00019455V19.5Z" fill="white"/>
</svg>
