<svg width="281" height="56" viewBox="0 0 281 56" fill="none" xmlns="http://www.w3.org/2000/svg">
<path d="M10.3383 11.3848V22.1152H18.2553V11.3848H10.3383ZM5.36563 44.2305V6.73926H23.4242V22.1152H26.1068V44.2305H5.36563ZM10.3383 39.1924H20.8725V26.8262H10.3383V39.1924ZM45.6441 26.8262V19.4326H30.1373V14.7217H50.8785V44.2305H30.2682V26.8262H45.6441ZM45.6441 31.6025H35.11V39.3887H45.6441V31.6025ZM70.743 19.6289H60.1434V39.5195H75.1268V44.2305H54.909V14.7217H75.6502V25.4521H70.743V19.6289ZM102.45 44.2305H94.7295L85.6348 31.2754H84.6533V44.2305H79.6807V0H84.6533V27.2842L94.6641 14.7871H101.796L89.3643 28.9854L102.45 44.2305ZM129.159 44.2305H117.12V19.4326H111.1V14.7217H117.12V6.01953H122.092V14.7217H129.159V19.4326H122.092V39.5195H129.159V44.2305ZM133.189 44.2305V14.7217H153.93V44.2305H133.189ZM149.023 19.5635L138.423 19.6289V39.5195H149.023V19.5635ZM180.115 19.4326V6.73926H185.35V44.2305H180.115V24.1436H169.581V44.2305H164.608V6.73926H169.581V19.4326H180.115ZM189.38 44.2305V14.7217H210.121V44.2305H189.38ZM205.214 19.5635L194.614 19.6289V39.5195H205.214V19.5635ZM234.893 44.2305H229.528V19.4326H219.124V44.2305H214.152V14.7217H250.334V44.2305H245.1V19.4326H234.893V44.2305ZM259.534 32.1914V39.5195H275.041V44.2305H254.299V14.7217H274.91V32.1914H259.534ZM259.534 27.3496H270.133V19.5635H259.534V27.3496Z" fill="white"/>
<path d="M0.000396729 54.4375H280.406V55.7461H0.000396729V54.4375Z" fill="white"/>
</svg>
