<svg width="185" height="83" viewBox="0 0 185 83" fill="none" xmlns="http://www.w3.org/2000/svg">
<rect width="185" height="83" fill="url(#paint0_linear_38_389)" fill-opacity="0.67"/>
<path d="M56.4648 56H51.582L44.7461 43.5H43.1836L43.2324 56H39.4727V28.0215H53.9746V43.5H49.6777L56.4648 56ZM50.0684 39.9844V31.4883H43.1836V39.9844H50.0684ZM61.8652 47.0156V52.4844H73.4375V56H57.959V33.9785H73.3398V47.0156H61.8652ZM61.8652 43.4023H69.7754V37.5918H61.8652V43.4023ZM92.9492 33.9785L86.9434 56H79.9609L73.9551 33.9785H78.9355L82.9395 52.4844H84.3555L88.3594 33.9785H92.9492ZM93.418 34.0273L97.1289 33.9785V56H93.418V34.0273ZM93.418 22.9922H97.1289V29.4863H93.418V22.9922ZM103.994 47.0156V52.4844H115.566V56H100.088V33.9785H115.469V47.0156H103.994ZM103.994 43.4023H111.904V37.5918H103.994V43.4023ZM130.049 33.9785H134.053V52.4844H141.865V33.9785H145.576V56H118.574V33.9785H122.48V52.4844H130.049V33.9785Z" fill="white"/>
<defs>
<linearGradient id="paint0_linear_38_389" x1="92.5" y1="83" x2="92.5" y2="0" gradientUnits="userSpaceOnUse">
<stop stop-color="#330503"/>
<stop offset="1" stop-color="#990F09"/>
</linearGradient>
</defs>
</svg>
